<svg
  xmlns="http://www.w3.org/2000/svg"
  version="1.1"
  xmlns:xlink="http://www.w3.org/1999/xlink"
  xmlns:svgjs="http://svgjs.com/svgjs"
  width="1440"
  height="560"
  preserveAspectRatio="none"
  viewBox="0 0 1440 560"
><g mask="url(&quot;#SvgjsMask1002&quot;)" fill="none"><rect
      width="1440"
      height="560"
      x="0"
      y="0"
      fill="rgba(18, 18, 18, 1)"
    /><path
      d="M124.82 488.27L189.78 525.77L189.78 600.77L124.82 638.27L59.87 600.77L59.87 525.77zM189.78 150.77L254.73 188.27L254.73 263.27L189.78 300.77L124.82 263.27L124.82 188.27zM189.78 375.77L254.73 413.27L254.73 488.27L189.78 525.77L124.82 488.27L124.82 413.27zM384.64 263.27L449.59 300.77L449.59 375.77L384.64 413.27L319.69 375.77L319.69 300.77zM514.55 263.27L579.5 300.77L579.5 375.77L514.55 413.27L449.59 375.77L449.59 300.77zM449.59 375.77L514.55 413.27L514.55 488.27L449.59 525.77L384.64 488.27L384.64 413.27zM644.45 263.27L709.41 300.77L709.41 375.77L644.45 413.27L579.5 375.77L579.5 300.77zM579.5 375.77L644.45 413.27L644.45 488.27L579.5 525.77L514.55 488.27L514.55 413.27zM839.31 375.77L904.27 413.27L904.27 488.27L839.31 525.77L774.36 488.27L774.36 413.27zM969.22 150.77L1034.18 188.27L1034.18 263.27L969.22 300.77L904.27 263.27L904.27 188.27zM1099.13 -74.23L1164.08 -36.73L1164.08 38.27L1099.13 75.77L1034.18 38.27L1034.18 -36.73zM1099.13 375.77L1164.08 413.27L1164.08 488.27L1099.13 525.77L1034.18 488.27L1034.18 413.27zM1358.94 150.77L1423.9 188.27L1423.9 263.27L1358.94 300.77L1293.99 263.27L1293.99 188.27zM1488.85 -74.23L1553.81 -36.73L1553.81 38.27L1488.85 75.77L1423.9 38.27L1423.9 -36.73z"
      stroke="#03305d"
      stroke-width="2"
    /><path
      d="M117.32 488.27 a7.5 7.5 0 1 0 15 0 a7.5 7.5 0 1 0 -15 0zM182.28 525.77 a7.5 7.5 0 1 0 15 0 a7.5 7.5 0 1 0 -15 0zM182.28 600.77 a7.5 7.5 0 1 0 15 0 a7.5 7.5 0 1 0 -15 0zM117.32 638.27 a7.5 7.5 0 1 0 15 0 a7.5 7.5 0 1 0 -15 0zM52.37 600.77 a7.5 7.5 0 1 0 15 0 a7.5 7.5 0 1 0 -15 0zM52.37 525.77 a7.5 7.5 0 1 0 15 0 a7.5 7.5 0 1 0 -15 0zM182.28 150.77 a7.5 7.5 0 1 0 15 0 a7.5 7.5 0 1 0 -15 0zM247.23 188.27 a7.5 7.5 0 1 0 15 0 a7.5 7.5 0 1 0 -15 0zM247.23 263.27 a7.5 7.5 0 1 0 15 0 a7.5 7.5 0 1 0 -15 0zM182.28 300.77 a7.5 7.5 0 1 0 15 0 a7.5 7.5 0 1 0 -15 0zM117.32 263.27 a7.5 7.5 0 1 0 15 0 a7.5 7.5 0 1 0 -15 0zM117.32 188.27 a7.5 7.5 0 1 0 15 0 a7.5 7.5 0 1 0 -15 0zM182.28 375.77 a7.5 7.5 0 1 0 15 0 a7.5 7.5 0 1 0 -15 0zM247.23 413.27 a7.5 7.5 0 1 0 15 0 a7.5 7.5 0 1 0 -15 0zM247.23 488.27 a7.5 7.5 0 1 0 15 0 a7.5 7.5 0 1 0 -15 0zM117.32 413.27 a7.5 7.5 0 1 0 15 0 a7.5 7.5 0 1 0 -15 0zM377.14 263.27 a7.5 7.5 0 1 0 15 0 a7.5 7.5 0 1 0 -15 0zM442.09 300.77 a7.5 7.5 0 1 0 15 0 a7.5 7.5 0 1 0 -15 0zM442.09 375.77 a7.5 7.5 0 1 0 15 0 a7.5 7.5 0 1 0 -15 0zM377.14 413.27 a7.5 7.5 0 1 0 15 0 a7.5 7.5 0 1 0 -15 0zM312.19 375.77 a7.5 7.5 0 1 0 15 0 a7.5 7.5 0 1 0 -15 0zM312.19 300.77 a7.5 7.5 0 1 0 15 0 a7.5 7.5 0 1 0 -15 0zM507.05 263.27 a7.5 7.5 0 1 0 15 0 a7.5 7.5 0 1 0 -15 0zM572 300.77 a7.5 7.5 0 1 0 15 0 a7.5 7.5 0 1 0 -15 0zM572 375.77 a7.5 7.5 0 1 0 15 0 a7.5 7.5 0 1 0 -15 0zM507.05 413.27 a7.5 7.5 0 1 0 15 0 a7.5 7.5 0 1 0 -15 0zM507.05 488.27 a7.5 7.5 0 1 0 15 0 a7.5 7.5 0 1 0 -15 0zM442.09 525.77 a7.5 7.5 0 1 0 15 0 a7.5 7.5 0 1 0 -15 0zM377.14 488.27 a7.5 7.5 0 1 0 15 0 a7.5 7.5 0 1 0 -15 0zM636.95 263.27 a7.5 7.5 0 1 0 15 0 a7.5 7.5 0 1 0 -15 0zM701.91 300.77 a7.5 7.5 0 1 0 15 0 a7.5 7.5 0 1 0 -15 0zM701.91 375.77 a7.5 7.5 0 1 0 15 0 a7.5 7.5 0 1 0 -15 0zM636.95 413.27 a7.5 7.5 0 1 0 15 0 a7.5 7.5 0 1 0 -15 0zM636.95 488.27 a7.5 7.5 0 1 0 15 0 a7.5 7.5 0 1 0 -15 0zM572 525.77 a7.5 7.5 0 1 0 15 0 a7.5 7.5 0 1 0 -15 0zM831.81 375.77 a7.5 7.5 0 1 0 15 0 a7.5 7.5 0 1 0 -15 0zM896.77 413.27 a7.5 7.5 0 1 0 15 0 a7.5 7.5 0 1 0 -15 0zM896.77 488.27 a7.5 7.5 0 1 0 15 0 a7.5 7.5 0 1 0 -15 0zM831.81 525.77 a7.5 7.5 0 1 0 15 0 a7.5 7.5 0 1 0 -15 0zM766.86 488.27 a7.5 7.5 0 1 0 15 0 a7.5 7.5 0 1 0 -15 0zM766.86 413.27 a7.5 7.5 0 1 0 15 0 a7.5 7.5 0 1 0 -15 0zM961.72 150.77 a7.5 7.5 0 1 0 15 0 a7.5 7.5 0 1 0 -15 0zM1026.68 188.27 a7.5 7.5 0 1 0 15 0 a7.5 7.5 0 1 0 -15 0zM1026.68 263.27 a7.5 7.5 0 1 0 15 0 a7.5 7.5 0 1 0 -15 0zM961.72 300.77 a7.5 7.5 0 1 0 15 0 a7.5 7.5 0 1 0 -15 0zM896.77 263.27 a7.5 7.5 0 1 0 15 0 a7.5 7.5 0 1 0 -15 0zM896.77 188.27 a7.5 7.5 0 1 0 15 0 a7.5 7.5 0 1 0 -15 0zM1091.63 -74.23 a7.5 7.5 0 1 0 15 0 a7.5 7.5 0 1 0 -15 0zM1156.58 -36.73 a7.5 7.5 0 1 0 15 0 a7.5 7.5 0 1 0 -15 0zM1156.58 38.27 a7.5 7.5 0 1 0 15 0 a7.5 7.5 0 1 0 -15 0zM1091.63 75.77 a7.5 7.5 0 1 0 15 0 a7.5 7.5 0 1 0 -15 0zM1026.68 38.27 a7.5 7.5 0 1 0 15 0 a7.5 7.5 0 1 0 -15 0zM1026.68 -36.73 a7.5 7.5 0 1 0 15 0 a7.5 7.5 0 1 0 -15 0zM1091.63 375.77 a7.5 7.5 0 1 0 15 0 a7.5 7.5 0 1 0 -15 0zM1156.58 413.27 a7.5 7.5 0 1 0 15 0 a7.5 7.5 0 1 0 -15 0zM1156.58 488.27 a7.5 7.5 0 1 0 15 0 a7.5 7.5 0 1 0 -15 0zM1091.63 525.77 a7.5 7.5 0 1 0 15 0 a7.5 7.5 0 1 0 -15 0zM1026.68 488.27 a7.5 7.5 0 1 0 15 0 a7.5 7.5 0 1 0 -15 0zM1026.68 413.27 a7.5 7.5 0 1 0 15 0 a7.5 7.5 0 1 0 -15 0zM1351.44 150.77 a7.5 7.5 0 1 0 15 0 a7.5 7.5 0 1 0 -15 0zM1416.4 188.27 a7.5 7.5 0 1 0 15 0 a7.5 7.5 0 1 0 -15 0zM1416.4 263.27 a7.5 7.5 0 1 0 15 0 a7.5 7.5 0 1 0 -15 0zM1351.44 300.77 a7.5 7.5 0 1 0 15 0 a7.5 7.5 0 1 0 -15 0zM1286.49 263.27 a7.5 7.5 0 1 0 15 0 a7.5 7.5 0 1 0 -15 0zM1286.49 188.27 a7.5 7.5 0 1 0 15 0 a7.5 7.5 0 1 0 -15 0zM1481.35 -74.23 a7.5 7.5 0 1 0 15 0 a7.5 7.5 0 1 0 -15 0zM1546.31 -36.73 a7.5 7.5 0 1 0 15 0 a7.5 7.5 0 1 0 -15 0zM1546.31 38.27 a7.5 7.5 0 1 0 15 0 a7.5 7.5 0 1 0 -15 0zM1481.35 75.77 a7.5 7.5 0 1 0 15 0 a7.5 7.5 0 1 0 -15 0zM1416.4 38.27 a7.5 7.5 0 1 0 15 0 a7.5 7.5 0 1 0 -15 0zM1416.4 -36.73 a7.5 7.5 0 1 0 15 0 a7.5 7.5 0 1 0 -15 0z"
      fill="#03305d"
    /><path
      d="M28.8 -31.6L72.1 -6.6L72.1 43.4L28.8 68.4L-14.5 43.4L-14.5 -6.6zM72.1 43.4L115.41 68.4L115.41 118.4L72.1 143.4L28.8 118.4L28.8 68.4zM72.1 493.4L115.41 518.4L115.41 568.4L72.1 593.4L28.8 568.4L28.8 518.4zM158.71 343.4L202.01 368.4L202.01 418.4L158.71 443.4L115.41 418.4L115.41 368.4zM245.31 343.4L288.62 368.4L288.62 418.4L245.31 443.4L202.01 418.4L202.01 368.4zM202.01 418.4L245.31 443.4L245.31 493.4L202.01 518.4L158.71 493.4L158.71 443.4zM375.22 418.4L418.52 443.4L418.52 493.4L375.22 518.4L331.92 493.4L331.92 443.4zM418.52 493.4L461.83 518.4L461.83 568.4L418.52 593.4L375.22 568.4L375.22 518.4zM678.34 343.4L721.64 368.4L721.64 418.4L678.34 443.4L635.03 418.4L635.03 368.4zM635.03 418.4L678.34 443.4L678.34 493.4L635.03 518.4L591.73 493.4L591.73 443.4zM678.34 493.4L721.64 518.4L721.64 568.4L678.34 593.4L635.03 568.4L635.03 518.4zM764.94 193.4L808.25 218.4L808.25 268.4L764.94 293.4L721.64 268.4L721.64 218.4zM938.15 343.4L981.46 368.4L981.46 418.4L938.15 443.4L894.85 418.4L894.85 368.4zM981.46 118.4L1024.76 143.4L1024.76 193.4L981.46 218.4L938.15 193.4L938.15 143.4zM981.46 268.4L1024.76 293.4L1024.76 343.4L981.46 368.4L938.15 343.4L938.15 293.4zM1154.66 -31.6L1197.97 -6.6L1197.97 43.4L1154.66 68.4L1111.36 43.4L1111.36 -6.6zM1241.27 268.4L1284.57 293.4L1284.57 343.4L1241.27 368.4L1197.97 343.4L1197.97 293.4zM1327.88 418.4L1371.18 443.4L1371.18 493.4L1327.88 518.4L1284.57 493.4L1284.57 443.4zM1414.48 268.4L1457.78 293.4L1457.78 343.4L1414.48 368.4L1371.18 343.4L1371.18 293.4z"
      stroke="rgba(0, 77, 135, 1)"
      stroke-width="2"
    /></g><defs><mask id="SvgjsMask1002"><rect
        width="1440"
        height="560"
        fill="#ffffff"
      /></mask></defs></svg>
