<svg xmlns="http://www.w3.org/2000/svg" version="1.1" xmlns:xlink="http://www.w3.org/1999/xlink" xmlns:svgjs="http://svgjs.com/svgjs" width="1440" height="560" preserveAspectRatio="none" viewBox="0 0 1440 560"><g mask="url(&quot;#SvgjsMask1024&quot;)" fill="none"><rect width="1440" height="560" x="0" y="0" fill="rgba(18, 18, 18, 1)"></rect><path d="M594 20L593 -307" stroke-width="6" stroke="url(#SvgjsLinearGradient1025)" stroke-linecap="round" class="Down"></path><path d="M666 453L665 173" stroke-width="10" stroke="url(#SvgjsLinearGradient1026)" stroke-linecap="round" class="Up"></path><path d="M909 78L908 -102" stroke-width="10" stroke="url(#SvgjsLinearGradient1025)" stroke-linecap="round" class="Down"></path><path d="M804 174L803 -170" stroke-width="8" stroke="url(#SvgjsLinearGradient1025)" stroke-linecap="round" class="Down"></path><path d="M372 476L371 793" stroke-width="8" stroke="url(#SvgjsLinearGradient1025)" stroke-linecap="round" class="Down"></path><path d="M1374 36L1373 246" stroke-width="10" stroke="url(#SvgjsLinearGradient1025)" stroke-linecap="round" class="Down"></path><path d="M115 370L114 187" stroke-width="6" stroke="url(#SvgjsLinearGradient1026)" stroke-linecap="round" class="Up"></path><path d="M94 24L93 234" stroke-width="6" stroke="url(#SvgjsLinearGradient1025)" stroke-linecap="round" class="Down"></path><path d="M129 406L128 633" stroke-width="8" stroke="url(#SvgjsLinearGradient1026)" stroke-linecap="round" class="Up"></path><path d="M396 31L395 431" stroke-width="8" stroke="url(#SvgjsLinearGradient1026)" stroke-linecap="round" class="Up"></path><path d="M569 397L568 742" stroke-width="6" stroke="url(#SvgjsLinearGradient1025)" stroke-linecap="round" class="Down"></path><path d="M1073 142L1072 372" stroke-width="8" stroke="url(#SvgjsLinearGradient1025)" stroke-linecap="round" class="Down"></path><path d="M20 192L19 504" stroke-width="8" stroke="url(#SvgjsLinearGradient1025)" stroke-linecap="round" class="Down"></path><path d="M38 510L37 308" stroke-width="8" stroke="url(#SvgjsLinearGradient1025)" stroke-linecap="round" class="Down"></path><path d="M220 539L219 137" stroke-width="8" stroke="url(#SvgjsLinearGradient1025)" stroke-linecap="round" class="Down"></path><path d="M1017 119L1016 -249" stroke-width="8" stroke="url(#SvgjsLinearGradient1025)" stroke-linecap="round" class="Down"></path><path d="M609 34L608 -367" stroke-width="8" stroke="url(#SvgjsLinearGradient1026)" stroke-linecap="round" class="Up"></path><path d="M681 49L680 -172" stroke-width="6" stroke="url(#SvgjsLinearGradient1026)" stroke-linecap="round" class="Up"></path><path d="M176 359L175 16" stroke-width="6" stroke="url(#SvgjsLinearGradient1025)" stroke-linecap="round" class="Down"></path><path d="M1213 412L1212 106" stroke-width="6" stroke="url(#SvgjsLinearGradient1026)" stroke-linecap="round" class="Up"></path><path d="M290 153L289 -62" stroke-width="6" stroke="url(#SvgjsLinearGradient1026)" stroke-linecap="round" class="Up"></path><path d="M795 271L794 577" stroke-width="8" stroke="url(#SvgjsLinearGradient1026)" stroke-linecap="round" class="Up"></path><path d="M966 185L965 -142" stroke-width="10" stroke="url(#SvgjsLinearGradient1025)" stroke-linecap="round" class="Down"></path><path d="M836 186L835 -88" stroke-width="8" stroke="url(#SvgjsLinearGradient1025)" stroke-linecap="round" class="Down"></path><path d="M1341 184L1340 580" stroke-width="8" stroke="url(#SvgjsLinearGradient1026)" stroke-linecap="round" class="Up"></path><path d="M1397 125L1396 -69" stroke-width="6" stroke="url(#SvgjsLinearGradient1026)" stroke-linecap="round" class="Up"></path><path d="M1363 97L1362 -148" stroke-width="10" stroke="url(#SvgjsLinearGradient1026)" stroke-linecap="round" class="Up"></path><path d="M1166 541L1165 815" stroke-width="6" stroke="url(#SvgjsLinearGradient1025)" stroke-linecap="round" class="Down"></path><path d="M390 508L389 236" stroke-width="8" stroke="url(#SvgjsLinearGradient1026)" stroke-linecap="round" class="Up"></path><path d="M35 123L34 -163" stroke-width="10" stroke="url(#SvgjsLinearGradient1025)" stroke-linecap="round" class="Down"></path><path d="M1178 475L1177 238" stroke-width="8" stroke="url(#SvgjsLinearGradient1026)" stroke-linecap="round" class="Up"></path><path d="M843 275L842 -114" stroke-width="6" stroke="url(#SvgjsLinearGradient1026)" stroke-linecap="round" class="Up"></path><path d="M847 32L846 365" stroke-width="6" stroke="url(#SvgjsLinearGradient1025)" stroke-linecap="round" class="Down"></path><path d="M192 67L191 295" stroke-width="8" stroke="url(#SvgjsLinearGradient1025)" stroke-linecap="round" class="Down"></path><path d="M61 407L60 219" stroke-width="10" stroke="url(#SvgjsLinearGradient1026)" stroke-linecap="round" class="Up"></path><path d="M299 556L298 273" stroke-width="10" stroke="url(#SvgjsLinearGradient1025)" stroke-linecap="round" class="Down"></path></g><defs><mask id="SvgjsMask1024"><rect width="1440" height="560" fill="#ffffff"></rect></mask><linearGradient x1="0%" y1="0%" x2="0%" y2="100%" id="SvgjsLinearGradient1025"><stop stop-color="rgba(0, 77, 135, 0)" offset="0"></stop><stop stop-color="rgba(0, 77, 135, 1)" offset="1"></stop></linearGradient><linearGradient x1="0%" y1="100%" x2="0%" y2="0%" id="SvgjsLinearGradient1026"><stop stop-color="rgba(0, 77, 135, 0)" offset="0"></stop><stop stop-color="rgba(0, 77, 135, 1)" offset="1"></stop></linearGradient></defs></svg>