<svg xmlns="http://www.w3.org/2000/svg" version="1.1" xmlns:xlink="http://www.w3.org/1999/xlink" xmlns:svgjs="http://svgjs.com/svgjs" width="1440" height="560" preserveAspectRatio="none" viewBox="0 0 1440 560"><g mask="url(&quot;#SvgjsMask1048&quot;)" fill="none"><rect width="1440" height="560" x="0" y="0" fill="rgba(18, 18, 18, 1)"></rect><path d="M-110.35 399.53L-110.35 399.53" stroke="rgba(0, 77, 135, 1)" stroke-width="1.5"></path><path d="M-110.35 399.53L-75.6 530.65" stroke="rgba(0, 77, 135, 1)" stroke-width="1.5"></path><path d="M-110.35 399.53L99.48 353.93" stroke="rgba(0, 77, 135, 1)" stroke-width="1.5"></path><path d="M-110.35 399.53L-79.9 708.88" stroke="rgba(0, 77, 135, 1)" stroke-width="1.5"></path><path d="M-110.35 399.53L216.78 403.34" stroke="rgba(0, 77, 135, 1)" stroke-width="1.5"></path><path d="M-75.6 530.65L-75.6 530.65" stroke="rgba(0, 77, 135, 1)" stroke-width="1.5"></path><path d="M-75.6 530.65L-79.9 708.88" stroke="rgba(0, 77, 135, 1)" stroke-width="1.5"></path><path d="M-75.6 530.65L89.12 687.84" stroke="rgba(0, 77, 135, 1)" stroke-width="1.5"></path><path d="M-75.6 530.65L99.48 353.93" stroke="rgba(0, 77, 135, 1)" stroke-width="1.5"></path><path d="M-79.9 708.88L-79.9 708.88" stroke="rgba(0, 77, 135, 1)" stroke-width="1.5"></path><path d="M-79.9 708.88L89.12 687.84" stroke="rgba(0, 77, 135, 1)" stroke-width="1.5"></path><path d="M99.48 353.93L99.48 353.93" stroke="rgba(0, 77, 135, 1)" stroke-width="1.5"></path><path d="M99.48 353.93L216.78 403.34" stroke="rgba(0, 77, 135, 1)" stroke-width="1.5"></path><path d="M99.48 353.93L247.86 515.01" stroke="rgba(0, 77, 135, 1)" stroke-width="1.5"></path><path d="M99.48 353.93L345.49 360.43" stroke="rgba(0, 77, 135, 1)" stroke-width="1.5"></path><path d="M99.48 353.93L340.67 555.44" stroke="rgba(0, 77, 135, 1)" stroke-width="1.5"></path><path d="M89.12 687.84L89.12 687.84" stroke="rgba(0, 77, 135, 1)" stroke-width="1.5"></path><path d="M89.12 687.84L257.98 679.31" stroke="rgba(0, 77, 135, 1)" stroke-width="1.5"></path><path d="M89.12 687.84L247.86 515.01" stroke="rgba(0, 77, 135, 1)" stroke-width="1.5"></path><path d="M216.78 403.34L216.78 403.34" stroke="rgba(0, 77, 135, 1)" stroke-width="1.5"></path><path d="M216.78 403.34L247.86 515.01" stroke="rgba(0, 77, 135, 1)" stroke-width="1.5"></path><path d="M216.78 403.34L345.49 360.43" stroke="rgba(0, 77, 135, 1)" stroke-width="1.5"></path><path d="M216.78 403.34L340.67 555.44" stroke="rgba(0, 77, 135, 1)" stroke-width="1.5"></path><path d="M216.78 403.34L257.98 679.31" stroke="rgba(0, 77, 135, 1)" stroke-width="1.5"></path><path d="M216.78 403.34L347.95 674.84" stroke="rgba(0, 77, 135, 1)" stroke-width="1.5"></path><path d="M247.86 515.01L247.86 515.01" stroke="rgba(0, 77, 135, 1)" stroke-width="1.5"></path><path d="M247.86 515.01L340.67 555.44" stroke="rgba(0, 77, 135, 1)" stroke-width="1.5"></path><path d="M257.98 679.31L257.98 679.31" stroke="rgba(0, 77, 135, 1)" stroke-width="1.5"></path><path d="M257.98 679.31L347.95 674.84" stroke="rgba(0, 77, 135, 1)" stroke-width="1.5"></path><path d="M257.98 679.31L340.67 555.44" stroke="rgba(0, 77, 135, 1)" stroke-width="1.5"></path><path d="M257.98 679.31L247.86 515.01" stroke="rgba(0, 77, 135, 1)" stroke-width="1.5"></path><path d="M345.49 360.43L345.49 360.43" stroke="rgba(0, 77, 135, 1)" stroke-width="1.5"></path><path d="M345.49 360.43L247.86 515.01" stroke="rgba(0, 77, 135, 1)" stroke-width="1.5"></path><path d="M340.67 555.44L340.67 555.44" stroke="rgba(0, 77, 135, 1)" stroke-width="1.5"></path><path d="M340.67 555.44L347.95 674.84" stroke="rgba(0, 77, 135, 1)" stroke-width="1.5"></path><path d="M347.95 674.84L347.95 674.84" stroke="rgba(0, 77, 135, 1)" stroke-width="1.5"></path><path d="M347.95 674.84L247.86 515.01" stroke="rgba(0, 77, 135, 1)" stroke-width="1.5"></path><path d="M347.95 674.84L537.9 682.19" stroke="rgba(0, 77, 135, 1)" stroke-width="1.5"></path><path d="M347.95 674.84L89.12 687.84" stroke="rgba(0, 77, 135, 1)" stroke-width="1.5"></path><path d="M347.95 674.84L558.67 496.56" stroke="rgba(0, 77, 135, 1)" stroke-width="1.5"></path><path d="M529.87 353.88L529.87 353.88" stroke="rgba(0, 77, 135, 1)" stroke-width="1.5"></path><path d="M529.87 353.88L665.45 386.02" stroke="rgba(0, 77, 135, 1)" stroke-width="1.5"></path><path d="M529.87 353.88L558.67 496.56" stroke="rgba(0, 77, 135, 1)" stroke-width="1.5"></path><path d="M529.87 353.88L345.49 360.43" stroke="rgba(0, 77, 135, 1)" stroke-width="1.5"></path><path d="M529.87 353.88L708.78 194.56" stroke="rgba(0, 77, 135, 1)" stroke-width="1.5"></path><path d="M558.67 496.56L558.67 496.56" stroke="rgba(0, 77, 135, 1)" stroke-width="1.5"></path><path d="M558.67 496.56L675.79 549.81" stroke="rgba(0, 77, 135, 1)" stroke-width="1.5"></path><path d="M537.9 682.19L537.9 682.19" stroke="rgba(0, 77, 135, 1)" stroke-width="1.5"></path><path d="M537.9 682.19L682.08 708.52" stroke="rgba(0, 77, 135, 1)" stroke-width="1.5"></path><path d="M537.9 682.19L558.67 496.56" stroke="rgba(0, 77, 135, 1)" stroke-width="1.5"></path><path d="M537.9 682.19L675.79 549.81" stroke="rgba(0, 77, 135, 1)" stroke-width="1.5"></path><path d="M537.9 682.19L340.67 555.44" stroke="rgba(0, 77, 135, 1)" stroke-width="1.5"></path><path d="M708.78 194.56L708.78 194.56" stroke="rgba(0, 77, 135, 1)" stroke-width="1.5"></path><path d="M708.78 194.56L828.48 208.87" stroke="rgba(0, 77, 135, 1)" stroke-width="1.5"></path><path d="M708.78 194.56L665.45 386.02" stroke="rgba(0, 77, 135, 1)" stroke-width="1.5"></path><path d="M708.78 194.56L806.68 380.6" stroke="rgba(0, 77, 135, 1)" stroke-width="1.5"></path><path d="M665.45 386.02L665.45 386.02" stroke="rgba(0, 77, 135, 1)" stroke-width="1.5"></path><path d="M665.45 386.02L806.68 380.6" stroke="rgba(0, 77, 135, 1)" stroke-width="1.5"></path><path d="M665.45 386.02L558.67 496.56" stroke="rgba(0, 77, 135, 1)" stroke-width="1.5"></path><path d="M675.79 549.81L675.79 549.81" stroke="rgba(0, 77, 135, 1)" stroke-width="1.5"></path><path d="M675.79 549.81L682.08 708.52" stroke="rgba(0, 77, 135, 1)" stroke-width="1.5"></path><path d="M675.79 549.81L665.45 386.02" stroke="rgba(0, 77, 135, 1)" stroke-width="1.5"></path><path d="M675.79 549.81L837.04 512.9" stroke="rgba(0, 77, 135, 1)" stroke-width="1.5"></path><path d="M675.79 549.81L814.27 692.43" stroke="rgba(0, 77, 135, 1)" stroke-width="1.5"></path><path d="M682.08 708.52L682.08 708.52" stroke="rgba(0, 77, 135, 1)" stroke-width="1.5"></path><path d="M682.08 708.52L814.27 692.43" stroke="rgba(0, 77, 135, 1)" stroke-width="1.5"></path><path d="M682.08 708.52L558.67 496.56" stroke="rgba(0, 77, 135, 1)" stroke-width="1.5"></path><path d="M682.08 708.52L837.04 512.9" stroke="rgba(0, 77, 135, 1)" stroke-width="1.5"></path><path d="M828.48 208.87L828.48 208.87" stroke="rgba(0, 77, 135, 1)" stroke-width="1.5"></path><path d="M828.48 208.87L940.48 223.65" stroke="rgba(0, 77, 135, 1)" stroke-width="1.5"></path><path d="M828.48 208.87L806.68 380.6" stroke="rgba(0, 77, 135, 1)" stroke-width="1.5"></path><path d="M828.48 208.87L972.2 81.07" stroke="rgba(0, 77, 135, 1)" stroke-width="1.5"></path><path d="M806.68 380.6L806.68 380.6" stroke="rgba(0, 77, 135, 1)" stroke-width="1.5"></path><path d="M806.68 380.6L837.04 512.9" stroke="rgba(0, 77, 135, 1)" stroke-width="1.5"></path><path d="M806.68 380.6L987.41 357.6" stroke="rgba(0, 77, 135, 1)" stroke-width="1.5"></path><path d="M806.68 380.6L940.48 223.65" stroke="rgba(0, 77, 135, 1)" stroke-width="1.5"></path><path d="M837.04 512.9L837.04 512.9" stroke="rgba(0, 77, 135, 1)" stroke-width="1.5"></path><path d="M837.04 512.9L987.72 516.41" stroke="rgba(0, 77, 135, 1)" stroke-width="1.5"></path><path d="M837.04 512.9L814.27 692.43" stroke="rgba(0, 77, 135, 1)" stroke-width="1.5"></path><path d="M814.27 692.43L814.27 692.43" stroke="rgba(0, 77, 135, 1)" stroke-width="1.5"></path><path d="M944.71 -110.48L944.71 -110.48" stroke="rgba(0, 77, 135, 1)" stroke-width="1.5"></path><path d="M944.71 -110.48L1121.36 -43.35" stroke="rgba(0, 77, 135, 1)" stroke-width="1.5"></path><path d="M944.71 -110.48L972.2 81.07" stroke="rgba(0, 77, 135, 1)" stroke-width="1.5"></path><path d="M944.71 -110.48L1146.84 104.78" stroke="rgba(0, 77, 135, 1)" stroke-width="1.5"></path><path d="M944.71 -110.48L940.48 223.65" stroke="rgba(0, 77, 135, 1)" stroke-width="1.5"></path><path d="M944.71 -110.48L1280.45 -95.57" stroke="rgba(0, 77, 135, 1)" stroke-width="1.5"></path><path d="M944.71 -110.48L828.48 208.87" stroke="rgba(0, 77, 135, 1)" stroke-width="1.5"></path><path d="M972.2 81.07L972.2 81.07" stroke="rgba(0, 77, 135, 1)" stroke-width="1.5"></path><path d="M972.2 81.07L940.48 223.65" stroke="rgba(0, 77, 135, 1)" stroke-width="1.5"></path><path d="M972.2 81.07L1146.84 104.78" stroke="rgba(0, 77, 135, 1)" stroke-width="1.5"></path><path d="M972.2 81.07L1121.36 -43.35" stroke="rgba(0, 77, 135, 1)" stroke-width="1.5"></path><path d="M940.48 223.65L940.48 223.65" stroke="rgba(0, 77, 135, 1)" stroke-width="1.5"></path><path d="M940.48 223.65L987.41 357.6" stroke="rgba(0, 77, 135, 1)" stroke-width="1.5"></path><path d="M940.48 223.65L1144.01 238.67" stroke="rgba(0, 77, 135, 1)" stroke-width="1.5"></path><path d="M987.41 357.6L987.41 357.6" stroke="rgba(0, 77, 135, 1)" stroke-width="1.5"></path><path d="M987.41 357.6L1113.01 363.6" stroke="rgba(0, 77, 135, 1)" stroke-width="1.5"></path><path d="M987.72 516.41L987.72 516.41" stroke="rgba(0, 77, 135, 1)" stroke-width="1.5"></path><path d="M987.72 516.41L1093.58 536.95" stroke="rgba(0, 77, 135, 1)" stroke-width="1.5"></path><path d="M987.72 516.41L1009.37 643.3" stroke="rgba(0, 77, 135, 1)" stroke-width="1.5"></path><path d="M987.72 516.41L987.41 357.6" stroke="rgba(0, 77, 135, 1)" stroke-width="1.5"></path><path d="M987.72 516.41L1113.01 363.6" stroke="rgba(0, 77, 135, 1)" stroke-width="1.5"></path><path d="M1009.37 643.3L1009.37 643.3" stroke="rgba(0, 77, 135, 1)" stroke-width="1.5"></path><path d="M1009.37 643.3L1116.06 687.1" stroke="rgba(0, 77, 135, 1)" stroke-width="1.5"></path><path d="M1009.37 643.3L1093.58 536.95" stroke="rgba(0, 77, 135, 1)" stroke-width="1.5"></path><path d="M1121.36 -43.35L1121.36 -43.35" stroke="rgba(0, 77, 135, 1)" stroke-width="1.5"></path><path d="M1121.36 -43.35L1146.84 104.78" stroke="rgba(0, 77, 135, 1)" stroke-width="1.5"></path><path d="M1121.36 -43.35L1280.45 -95.57" stroke="rgba(0, 77, 135, 1)" stroke-width="1.5"></path><path d="M1121.36 -43.35L1240.57 74.41" stroke="rgba(0, 77, 135, 1)" stroke-width="1.5"></path><path d="M1146.84 104.78L1146.84 104.78" stroke="rgba(0, 77, 135, 1)" stroke-width="1.5"></path><path d="M1146.84 104.78L1240.57 74.41" stroke="rgba(0, 77, 135, 1)" stroke-width="1.5"></path><path d="M1146.84 104.78L1144.01 238.67" stroke="rgba(0, 77, 135, 1)" stroke-width="1.5"></path><path d="M1146.84 104.78L1245.08 228.53" stroke="rgba(0, 77, 135, 1)" stroke-width="1.5"></path><path d="M1146.84 104.78L940.48 223.65" stroke="rgba(0, 77, 135, 1)" stroke-width="1.5"></path><path d="M1144.01 238.67L1144.01 238.67" stroke="rgba(0, 77, 135, 1)" stroke-width="1.5"></path><path d="M1144.01 238.67L1245.08 228.53" stroke="rgba(0, 77, 135, 1)" stroke-width="1.5"></path><path d="M1144.01 238.67L1113.01 363.6" stroke="rgba(0, 77, 135, 1)" stroke-width="1.5"></path><path d="M1113.01 363.6L1113.01 363.6" stroke="rgba(0, 77, 135, 1)" stroke-width="1.5"></path><path d="M1093.58 536.95L1093.58 536.95" stroke="rgba(0, 77, 135, 1)" stroke-width="1.5"></path><path d="M1093.58 536.95L1116.06 687.1" stroke="rgba(0, 77, 135, 1)" stroke-width="1.5"></path><path d="M1093.58 536.95L1113.01 363.6" stroke="rgba(0, 77, 135, 1)" stroke-width="1.5"></path><path d="M1093.58 536.95L1285.81 500.73" stroke="rgba(0, 77, 135, 1)" stroke-width="1.5"></path><path d="M1093.58 536.95L987.41 357.6" stroke="rgba(0, 77, 135, 1)" stroke-width="1.5"></path><path d="M1116.06 687.1L1116.06 687.1" stroke="rgba(0, 77, 135, 1)" stroke-width="1.5"></path><path d="M1116.06 687.1L1307.39 670.2" stroke="rgba(0, 77, 135, 1)" stroke-width="1.5"></path><path d="M1280.45 -95.57L1280.45 -95.57" stroke="rgba(0, 77, 135, 1)" stroke-width="1.5"></path><path d="M1280.45 -95.57L1240.57 74.41" stroke="rgba(0, 77, 135, 1)" stroke-width="1.5"></path><path d="M1240.57 74.41L1240.57 74.41" stroke="rgba(0, 77, 135, 1)" stroke-width="1.5"></path><path d="M1240.57 74.41L1393.88 72.61" stroke="rgba(0, 77, 135, 1)" stroke-width="1.5"></path><path d="M1240.57 74.41L1245.08 228.53" stroke="rgba(0, 77, 135, 1)" stroke-width="1.5"></path><path d="M1240.57 74.41L1144.01 238.67" stroke="rgba(0, 77, 135, 1)" stroke-width="1.5"></path><path d="M1245.08 228.53L1245.08 228.53" stroke="rgba(0, 77, 135, 1)" stroke-width="1.5"></path><path d="M1245.08 228.53L1295.67 372.95" stroke="rgba(0, 77, 135, 1)" stroke-width="1.5"></path><path d="M1245.08 228.53L1413.49 197.59" stroke="rgba(0, 77, 135, 1)" stroke-width="1.5"></path><path d="M1245.08 228.53L1113.01 363.6" stroke="rgba(0, 77, 135, 1)" stroke-width="1.5"></path><path d="M1295.67 372.95L1295.67 372.95" stroke="rgba(0, 77, 135, 1)" stroke-width="1.5"></path><path d="M1295.67 372.95L1398.72 338.66" stroke="rgba(0, 77, 135, 1)" stroke-width="1.5"></path><path d="M1295.67 372.95L1285.81 500.73" stroke="rgba(0, 77, 135, 1)" stroke-width="1.5"></path><path d="M1295.67 372.95L1113.01 363.6" stroke="rgba(0, 77, 135, 1)" stroke-width="1.5"></path><path d="M1295.67 372.95L1416.94 534.21" stroke="rgba(0, 77, 135, 1)" stroke-width="1.5"></path><path d="M1285.81 500.73L1285.81 500.73" stroke="rgba(0, 77, 135, 1)" stroke-width="1.5"></path><path d="M1285.81 500.73L1416.94 534.21" stroke="rgba(0, 77, 135, 1)" stroke-width="1.5"></path><path d="M1285.81 500.73L1307.39 670.2" stroke="rgba(0, 77, 135, 1)" stroke-width="1.5"></path><path d="M1307.39 670.2L1307.39 670.2" stroke="rgba(0, 77, 135, 1)" stroke-width="1.5"></path><path d="M1307.39 670.2L1460.46 696.31" stroke="rgba(0, 77, 135, 1)" stroke-width="1.5"></path><path d="M1461.47 -53.38L1461.47 -53.38" stroke="rgba(0, 77, 135, 1)" stroke-width="1.5"></path><path d="M1461.47 -53.38L1580.11 -68.92" stroke="rgba(0, 77, 135, 1)" stroke-width="1.5"></path><path d="M1461.47 -53.38L1393.88 72.61" stroke="rgba(0, 77, 135, 1)" stroke-width="1.5"></path><path d="M1461.47 -53.38L1280.45 -95.57" stroke="rgba(0, 77, 135, 1)" stroke-width="1.5"></path><path d="M1461.47 -53.38L1572.02 105.33" stroke="rgba(0, 77, 135, 1)" stroke-width="1.5"></path><path d="M1461.47 -53.38L1240.57 74.41" stroke="rgba(0, 77, 135, 1)" stroke-width="1.5"></path><path d="M1393.88 72.61L1393.88 72.61" stroke="rgba(0, 77, 135, 1)" stroke-width="1.5"></path><path d="M1393.88 72.61L1413.49 197.59" stroke="rgba(0, 77, 135, 1)" stroke-width="1.5"></path><path d="M1393.88 72.61L1572.02 105.33" stroke="rgba(0, 77, 135, 1)" stroke-width="1.5"></path><path d="M1413.49 197.59L1413.49 197.59" stroke="rgba(0, 77, 135, 1)" stroke-width="1.5"></path><path d="M1413.49 197.59L1550.56 228.61" stroke="rgba(0, 77, 135, 1)" stroke-width="1.5"></path><path d="M1413.49 197.59L1398.72 338.66" stroke="rgba(0, 77, 135, 1)" stroke-width="1.5"></path><path d="M1398.72 338.66L1398.72 338.66" stroke="rgba(0, 77, 135, 1)" stroke-width="1.5"></path><path d="M1398.72 338.66L1570.06 409.47" stroke="rgba(0, 77, 135, 1)" stroke-width="1.5"></path><path d="M1416.94 534.21L1416.94 534.21" stroke="rgba(0, 77, 135, 1)" stroke-width="1.5"></path><path d="M1416.94 534.21L1549.42 503.65" stroke="rgba(0, 77, 135, 1)" stroke-width="1.5"></path><path d="M1416.94 534.21L1460.46 696.31" stroke="rgba(0, 77, 135, 1)" stroke-width="1.5"></path><path d="M1460.46 696.31L1460.46 696.31" stroke="rgba(0, 77, 135, 1)" stroke-width="1.5"></path><path d="M1460.46 696.31L1556.75 656.68" stroke="rgba(0, 77, 135, 1)" stroke-width="1.5"></path><path d="M1580.11 -68.92L1580.11 -68.92" stroke="rgba(0, 77, 135, 1)" stroke-width="1.5"></path><path d="M1580.11 -68.92L1572.02 105.33" stroke="rgba(0, 77, 135, 1)" stroke-width="1.5"></path><path d="M1572.02 105.33L1572.02 105.33" stroke="rgba(0, 77, 135, 1)" stroke-width="1.5"></path><path d="M1572.02 105.33L1550.56 228.61" stroke="rgba(0, 77, 135, 1)" stroke-width="1.5"></path><path d="M1572.02 105.33L1413.49 197.59" stroke="rgba(0, 77, 135, 1)" stroke-width="1.5"></path><path d="M1550.56 228.61L1550.56 228.61" stroke="rgba(0, 77, 135, 1)" stroke-width="1.5"></path><path d="M1550.56 228.61L1570.06 409.47" stroke="rgba(0, 77, 135, 1)" stroke-width="1.5"></path><path d="M1570.06 409.47L1570.06 409.47" stroke="rgba(0, 77, 135, 1)" stroke-width="1.5"></path><path d="M1570.06 409.47L1549.42 503.65" stroke="rgba(0, 77, 135, 1)" stroke-width="1.5"></path><path d="M1549.42 503.65L1549.42 503.65" stroke="rgba(0, 77, 135, 1)" stroke-width="1.5"></path><path d="M1549.42 503.65L1556.75 656.68" stroke="rgba(0, 77, 135, 1)" stroke-width="1.5"></path><path d="M1549.42 503.65L1460.46 696.31" stroke="rgba(0, 77, 135, 1)" stroke-width="1.5"></path><path d="M1556.75 656.68L1556.75 656.68" stroke="rgba(0, 77, 135, 1)" stroke-width="1.5"></path><path d="M1556.75 656.68L1416.94 534.21" stroke="rgba(0, 77, 135, 1)" stroke-width="1.5"></path><path d="M1556.75 656.68L1570.06 409.47" stroke="rgba(0, 77, 135, 1)" stroke-width="1.5"></path><path d="M1556.75 656.68L1307.39 670.2" stroke="rgba(0, 77, 135, 1)" stroke-width="1.5"></path><circle r="5" cx="-110.35" cy="399.53" fill="rgba(0, 77, 135, 1)"></circle><circle r="5" cx="-75.6" cy="530.65" fill="rgba(0, 77, 135, 1)"></circle><circle r="5" cx="-79.9" cy="708.88" fill="rgba(0, 77, 135, 1)"></circle><circle r="5" cx="99.48" cy="353.93" fill="rgba(0, 77, 135, 1)"></circle><circle r="5" cx="89.12" cy="687.84" fill="rgba(0, 77, 135, 1)"></circle><circle r="5" cx="216.78" cy="403.34" fill="rgba(0, 77, 135, 1)"></circle><circle r="5" cx="247.86" cy="515.01" fill="rgba(0, 77, 135, 1)"></circle><circle r="5" cx="257.98" cy="679.31" fill="rgba(0, 77, 135, 1)"></circle><circle r="5" cx="345.49" cy="360.43" fill="rgba(0, 77, 135, 1)"></circle><circle r="5" cx="340.67" cy="555.44" fill="rgba(0, 77, 135, 1)"></circle><circle r="5" cx="347.95" cy="674.84" fill="rgba(0, 77, 135, 1)"></circle><circle r="5" cx="529.87" cy="353.88" fill="rgba(0, 77, 135, 1)"></circle><circle r="5" cx="558.67" cy="496.56" fill="rgba(0, 77, 135, 1)"></circle><circle r="5" cx="537.9" cy="682.19" fill="rgba(0, 77, 135, 1)"></circle><circle r="5" cx="708.78" cy="194.56" fill="rgba(0, 77, 135, 1)"></circle><circle r="5" cx="665.45" cy="386.02" fill="rgba(0, 77, 135, 1)"></circle><circle r="5" cx="675.79" cy="549.81" fill="rgba(0, 77, 135, 1)"></circle><circle r="5" cx="682.08" cy="708.52" fill="rgba(0, 77, 135, 1)"></circle><circle r="5" cx="828.48" cy="208.87" fill="rgba(0, 77, 135, 1)"></circle><circle r="5" cx="806.68" cy="380.6" fill="rgba(0, 77, 135, 1)"></circle><circle r="5" cx="837.04" cy="512.9" fill="rgba(0, 77, 135, 1)"></circle><circle r="5" cx="814.27" cy="692.43" fill="rgba(0, 77, 135, 1)"></circle><circle r="5" cx="944.71" cy="-110.48" fill="rgba(0, 77, 135, 1)"></circle><circle r="5" cx="972.2" cy="81.07" fill="rgba(0, 77, 135, 1)"></circle><circle r="5" cx="940.48" cy="223.65" fill="rgba(0, 77, 135, 1)"></circle><circle r="5" cx="987.41" cy="357.6" fill="rgba(0, 77, 135, 1)"></circle><circle r="5" cx="987.72" cy="516.41" fill="rgba(0, 77, 135, 1)"></circle><circle r="5" cx="1009.37" cy="643.3" fill="rgba(0, 77, 135, 1)"></circle><circle r="5" cx="1121.36" cy="-43.35" fill="rgba(0, 77, 135, 1)"></circle><circle r="5" cx="1146.84" cy="104.78" fill="rgba(0, 77, 135, 1)"></circle><circle r="5" cx="1144.01" cy="238.67" fill="rgba(0, 77, 135, 1)"></circle><circle r="5" cx="1113.01" cy="363.6" fill="rgba(0, 77, 135, 1)"></circle><circle r="5" cx="1093.58" cy="536.95" fill="rgba(0, 77, 135, 1)"></circle><circle r="5" cx="1116.06" cy="687.1" fill="rgba(0, 77, 135, 1)"></circle><circle r="5" cx="1280.45" cy="-95.57" fill="rgba(0, 77, 135, 1)"></circle><circle r="5" cx="1240.57" cy="74.41" fill="rgba(0, 77, 135, 1)"></circle><circle r="5" cx="1245.08" cy="228.53" fill="rgba(0, 77, 135, 1)"></circle><circle r="5" cx="1295.67" cy="372.95" fill="rgba(0, 77, 135, 1)"></circle><circle r="5" cx="1285.81" cy="500.73" fill="rgba(0, 77, 135, 1)"></circle><circle r="5" cx="1307.39" cy="670.2" fill="rgba(0, 77, 135, 1)"></circle><circle r="5" cx="1461.47" cy="-53.38" fill="rgba(0, 77, 135, 1)"></circle><circle r="5" cx="1393.88" cy="72.61" fill="rgba(0, 77, 135, 1)"></circle><circle r="5" cx="1413.49" cy="197.59" fill="rgba(0, 77, 135, 1)"></circle><circle r="5" cx="1398.72" cy="338.66" fill="rgba(0, 77, 135, 1)"></circle><circle r="5" cx="1416.94" cy="534.21" fill="rgba(0, 77, 135, 1)"></circle><circle r="5" cx="1460.46" cy="696.31" fill="rgba(0, 77, 135, 1)"></circle><circle r="5" cx="1580.11" cy="-68.92" fill="rgba(0, 77, 135, 1)"></circle><circle r="5" cx="1572.02" cy="105.33" fill="rgba(0, 77, 135, 1)"></circle><circle r="5" cx="1550.56" cy="228.61" fill="rgba(0, 77, 135, 1)"></circle><circle r="5" cx="1570.06" cy="409.47" fill="rgba(0, 77, 135, 1)"></circle><circle r="5" cx="1549.42" cy="503.65" fill="rgba(0, 77, 135, 1)"></circle><circle r="5" cx="1556.75" cy="656.68" fill="rgba(0, 77, 135, 1)"></circle><path d="M49.23 708.83L49.23 708.83" stroke="hsla(205.79999999999995, 100%, 34.4%, 0.78)" stroke-width="1.5"></path><path d="M49.23 708.83L-56.07 647.92" stroke="hsla(205.79999999999995, 100%, 34.4%, 0.78)" stroke-width="1.5"></path><path d="M560.96 653.58L560.96 653.58" stroke="hsla(205.79999999999995, 100%, 34.4%, 0.78)" stroke-width="1.5"></path><path d="M560.96 653.58L647.13 642.91" stroke="hsla(205.79999999999995, 100%, 34.4%, 0.78)" stroke-width="1.5"></path><path d="M560.96 653.58L528.63 538.55" stroke="hsla(205.79999999999995, 100%, 34.4%, 0.78)" stroke-width="1.5"></path><path d="M560.96 653.58L668.26 506.39" stroke="hsla(205.79999999999995, 100%, 34.4%, 0.78)" stroke-width="1.5"></path><path d="M560.96 653.58L356.16 677.44" stroke="hsla(205.79999999999995, 100%, 34.4%, 0.78)" stroke-width="1.5"></path><path d="M664.87 388.13L664.87 388.13" stroke="hsla(205.79999999999995, 100%, 34.4%, 0.78)" stroke-width="1.5"></path><path d="M664.87 388.13L668.26 506.39" stroke="hsla(205.79999999999995, 100%, 34.4%, 0.78)" stroke-width="1.5"></path><path d="M664.87 388.13L510.3 409.7" stroke="hsla(205.79999999999995, 100%, 34.4%, 0.78)" stroke-width="1.5"></path><path d="M664.87 388.13L853.64 339.95" stroke="hsla(205.79999999999995, 100%, 34.4%, 0.78)" stroke-width="1.5"></path><path d="M664.87 388.13L528.63 538.55" stroke="hsla(205.79999999999995, 100%, 34.4%, 0.78)" stroke-width="1.5"></path><path d="M968.83 673.52L968.83 673.52" stroke="hsla(205.79999999999995, 100%, 34.4%, 0.78)" stroke-width="1.5"></path><path d="M968.83 673.52L941.23 558.21" stroke="hsla(205.79999999999995, 100%, 34.4%, 0.78)" stroke-width="1.5"></path><path d="M968.83 673.52L1101.28 641.78" stroke="hsla(205.79999999999995, 100%, 34.4%, 0.78)" stroke-width="1.5"></path><path d="M968.83 673.52L1128.62 556.86" stroke="hsla(205.79999999999995, 100%, 34.4%, 0.78)" stroke-width="1.5"></path><path d="M968.83 673.52L827.9 520.63" stroke="hsla(205.79999999999995, 100%, 34.4%, 0.78)" stroke-width="1.5"></path><path d="M1128.62 556.86L1128.62 556.86" stroke="hsla(205.79999999999995, 100%, 34.4%, 0.78)" stroke-width="1.5"></path><path d="M1128.62 556.86L1101.28 641.78" stroke="hsla(205.79999999999995, 100%, 34.4%, 0.78)" stroke-width="1.5"></path><path d="M1128.62 556.86L1240.49 510.81" stroke="hsla(205.79999999999995, 100%, 34.4%, 0.78)" stroke-width="1.5"></path><path d="M1128.62 556.86L1264.3 661.61" stroke="hsla(205.79999999999995, 100%, 34.4%, 0.78)" stroke-width="1.5"></path><path d="M1128.62 556.86L1123.97 384.29" stroke="hsla(205.79999999999995, 100%, 34.4%, 0.78)" stroke-width="1.5"></path><path d="M1264.3 661.61L1264.3 661.61" stroke="hsla(205.79999999999995, 100%, 34.4%, 0.78)" stroke-width="1.5"></path><path d="M1264.3 661.61L1396.68 671.64" stroke="hsla(205.79999999999995, 100%, 34.4%, 0.78)" stroke-width="1.5"></path><path d="M1264.3 661.61L1240.49 510.81" stroke="hsla(205.79999999999995, 100%, 34.4%, 0.78)" stroke-width="1.5"></path><path d="M1264.3 661.61L1101.28 641.78" stroke="hsla(205.79999999999995, 100%, 34.4%, 0.78)" stroke-width="1.5"></path><path d="M1264.3 661.61L1427.82 561.37" stroke="hsla(205.79999999999995, 100%, 34.4%, 0.78)" stroke-width="1.5"></path><path d="M1264.3 661.61L968.83 673.52" stroke="hsla(205.79999999999995, 100%, 34.4%, 0.78)" stroke-width="1.5"></path><path d="M1580.23 99.07L1580.23 99.07" stroke="hsla(205.79999999999995, 100%, 34.4%, 0.78)" stroke-width="1.5"></path><path d="M1580.23 99.07L1557.07 248.35" stroke="hsla(205.79999999999995, 100%, 34.4%, 0.78)" stroke-width="1.5"></path><path d="M1580.23 99.07L1611.18 -72.21" stroke="hsla(205.79999999999995, 100%, 34.4%, 0.78)" stroke-width="1.5"></path><path d="M1580.23 99.07L1388.74 81.14" stroke="hsla(205.79999999999995, 100%, 34.4%, 0.78)" stroke-width="1.5"></path><path d="M1580.23 99.07L1407.22 259.1" stroke="hsla(205.79999999999995, 100%, 34.4%, 0.78)" stroke-width="1.5"></path><path d="M1575.06 526.65L1575.06 526.65" stroke="hsla(205.79999999999995, 100%, 34.4%, 0.78)" stroke-width="1.5"></path><path d="M1575.06 526.65L1611.47 643.65" stroke="hsla(205.79999999999995, 100%, 34.4%, 0.78)" stroke-width="1.5"></path><path d="M1575.06 526.65L1554.12 380.11" stroke="hsla(205.79999999999995, 100%, 34.4%, 0.78)" stroke-width="1.5"></path><path d="M1575.06 526.65L1427.82 561.37" stroke="hsla(205.79999999999995, 100%, 34.4%, 0.78)" stroke-width="1.5"></path><path d="M1575.06 526.65L1396.8 395.79" stroke="hsla(205.79999999999995, 100%, 34.4%, 0.78)" stroke-width="1.5"></path><path d="M1575.06 526.65L1396.68 671.64" stroke="hsla(205.79999999999995, 100%, 34.4%, 0.78)" stroke-width="1.5"></path><path d="M1575.06 526.65L1557.07 248.35" stroke="hsla(205.79999999999995, 100%, 34.4%, 0.78)" stroke-width="1.5"></path><path d="M-90.46 526.56L-90.46 526.56" stroke="hsla(205.79999999999995, 100%, 34.4%, 0.78)" stroke-width="1.5"></path><path d="M-90.46 526.56L-56.07 647.92" stroke="hsla(205.79999999999995, 100%, 34.4%, 0.78)" stroke-width="1.5"></path><path d="M-90.46 526.56L49.23 708.83" stroke="hsla(205.79999999999995, 100%, 34.4%, 0.78)" stroke-width="1.5"></path><path d="M-90.46 526.56L191.08 540.31" stroke="hsla(205.79999999999995, 100%, 34.4%, 0.78)" stroke-width="1.5"></path><path d="M-56.07 647.92L-56.07 647.92" stroke="hsla(205.79999999999995, 100%, 34.4%, 0.78)" stroke-width="1.5"></path><path d="M-56.07 647.92L191.08 540.31" stroke="hsla(205.79999999999995, 100%, 34.4%, 0.78)" stroke-width="1.5"></path><path d="M-56.07 647.92L227.78 659.57" stroke="hsla(205.79999999999995, 100%, 34.4%, 0.78)" stroke-width="1.5"></path><path d="M-56.07 647.92L356.16 677.44" stroke="hsla(205.79999999999995, 100%, 34.4%, 0.78)" stroke-width="1.5"></path><path d="M191.08 540.31L191.08 540.31" stroke="hsla(205.79999999999995, 100%, 34.4%, 0.78)" stroke-width="1.5"></path><path d="M191.08 540.31L227.78 659.57" stroke="hsla(205.79999999999995, 100%, 34.4%, 0.78)" stroke-width="1.5"></path><path d="M191.08 540.31L356.16 677.44" stroke="hsla(205.79999999999995, 100%, 34.4%, 0.78)" stroke-width="1.5"></path><path d="M191.08 540.31L49.23 708.83" stroke="hsla(205.79999999999995, 100%, 34.4%, 0.78)" stroke-width="1.5"></path><path d="M227.78 659.57L227.78 659.57" stroke="hsla(205.79999999999995, 100%, 34.4%, 0.78)" stroke-width="1.5"></path><path d="M227.78 659.57L356.16 677.44" stroke="hsla(205.79999999999995, 100%, 34.4%, 0.78)" stroke-width="1.5"></path><path d="M356.16 677.44L356.16 677.44" stroke="hsla(205.79999999999995, 100%, 34.4%, 0.78)" stroke-width="1.5"></path><path d="M356.16 677.44L528.63 538.55" stroke="hsla(205.79999999999995, 100%, 34.4%, 0.78)" stroke-width="1.5"></path><path d="M356.16 677.44L647.13 642.91" stroke="hsla(205.79999999999995, 100%, 34.4%, 0.78)" stroke-width="1.5"></path><path d="M510.3 409.7L510.3 409.7" stroke="hsla(205.79999999999995, 100%, 34.4%, 0.78)" stroke-width="1.5"></path><path d="M510.3 409.7L528.63 538.55" stroke="hsla(205.79999999999995, 100%, 34.4%, 0.78)" stroke-width="1.5"></path><path d="M510.3 409.7L668.26 506.39" stroke="hsla(205.79999999999995, 100%, 34.4%, 0.78)" stroke-width="1.5"></path><path d="M510.3 409.7L560.96 653.58" stroke="hsla(205.79999999999995, 100%, 34.4%, 0.78)" stroke-width="1.5"></path><path d="M510.3 409.7L647.13 642.91" stroke="hsla(205.79999999999995, 100%, 34.4%, 0.78)" stroke-width="1.5"></path><path d="M528.63 538.55L528.63 538.55" stroke="hsla(205.79999999999995, 100%, 34.4%, 0.78)" stroke-width="1.5"></path><path d="M528.63 538.55L668.26 506.39" stroke="hsla(205.79999999999995, 100%, 34.4%, 0.78)" stroke-width="1.5"></path><path d="M528.63 538.55L647.13 642.91" stroke="hsla(205.79999999999995, 100%, 34.4%, 0.78)" stroke-width="1.5"></path><path d="M668.26 506.39L668.26 506.39" stroke="hsla(205.79999999999995, 100%, 34.4%, 0.78)" stroke-width="1.5"></path><path d="M668.26 506.39L647.13 642.91" stroke="hsla(205.79999999999995, 100%, 34.4%, 0.78)" stroke-width="1.5"></path><path d="M668.26 506.39L827.9 520.63" stroke="hsla(205.79999999999995, 100%, 34.4%, 0.78)" stroke-width="1.5"></path><path d="M647.13 642.91L647.13 642.91" stroke="hsla(205.79999999999995, 100%, 34.4%, 0.78)" stroke-width="1.5"></path><path d="M647.13 642.91L827.9 520.63" stroke="hsla(205.79999999999995, 100%, 34.4%, 0.78)" stroke-width="1.5"></path><path d="M853.64 339.95L853.64 339.95" stroke="hsla(205.79999999999995, 100%, 34.4%, 0.78)" stroke-width="1.5"></path><path d="M853.64 339.95L979.34 339.29" stroke="hsla(205.79999999999995, 100%, 34.4%, 0.78)" stroke-width="1.5"></path><path d="M853.64 339.95L827.9 520.63" stroke="hsla(205.79999999999995, 100%, 34.4%, 0.78)" stroke-width="1.5"></path><path d="M853.64 339.95L941.23 558.21" stroke="hsla(205.79999999999995, 100%, 34.4%, 0.78)" stroke-width="1.5"></path><path d="M853.64 339.95L668.26 506.39" stroke="hsla(205.79999999999995, 100%, 34.4%, 0.78)" stroke-width="1.5"></path><path d="M827.9 520.63L827.9 520.63" stroke="hsla(205.79999999999995, 100%, 34.4%, 0.78)" stroke-width="1.5"></path><path d="M827.9 520.63L941.23 558.21" stroke="hsla(205.79999999999995, 100%, 34.4%, 0.78)" stroke-width="1.5"></path><path d="M827.9 520.63L664.87 388.13" stroke="hsla(205.79999999999995, 100%, 34.4%, 0.78)" stroke-width="1.5"></path><path d="M979.34 339.29L979.34 339.29" stroke="hsla(205.79999999999995, 100%, 34.4%, 0.78)" stroke-width="1.5"></path><path d="M979.34 339.29L1123.97 384.29" stroke="hsla(205.79999999999995, 100%, 34.4%, 0.78)" stroke-width="1.5"></path><path d="M979.34 339.29L1120.72 228.96" stroke="hsla(205.79999999999995, 100%, 34.4%, 0.78)" stroke-width="1.5"></path><path d="M941.23 558.21L941.23 558.21" stroke="hsla(205.79999999999995, 100%, 34.4%, 0.78)" stroke-width="1.5"></path><path d="M941.23 558.21L1101.28 641.78" stroke="hsla(205.79999999999995, 100%, 34.4%, 0.78)" stroke-width="1.5"></path><path d="M941.23 558.21L1128.62 556.86" stroke="hsla(205.79999999999995, 100%, 34.4%, 0.78)" stroke-width="1.5"></path><path d="M1143.04 93.38L1143.04 93.38" stroke="hsla(205.79999999999995, 100%, 34.4%, 0.78)" stroke-width="1.5"></path><path d="M1143.04 93.38L1271.24 59.46" stroke="hsla(205.79999999999995, 100%, 34.4%, 0.78)" stroke-width="1.5"></path><path d="M1143.04 93.38L1120.72 228.96" stroke="hsla(205.79999999999995, 100%, 34.4%, 0.78)" stroke-width="1.5"></path><path d="M1120.72 228.96L1120.72 228.96" stroke="hsla(205.79999999999995, 100%, 34.4%, 0.78)" stroke-width="1.5"></path><path d="M1120.72 228.96L1123.97 384.29" stroke="hsla(205.79999999999995, 100%, 34.4%, 0.78)" stroke-width="1.5"></path><path d="M1120.72 228.96L1287.56 198.07" stroke="hsla(205.79999999999995, 100%, 34.4%, 0.78)" stroke-width="1.5"></path><path d="M1120.72 228.96L1243.39 349.91" stroke="hsla(205.79999999999995, 100%, 34.4%, 0.78)" stroke-width="1.5"></path><path d="M1120.72 228.96L1271.24 59.46" stroke="hsla(205.79999999999995, 100%, 34.4%, 0.78)" stroke-width="1.5"></path><path d="M1123.97 384.29L1123.97 384.29" stroke="hsla(205.79999999999995, 100%, 34.4%, 0.78)" stroke-width="1.5"></path><path d="M1123.97 384.29L1243.39 349.91" stroke="hsla(205.79999999999995, 100%, 34.4%, 0.78)" stroke-width="1.5"></path><path d="M1123.97 384.29L1240.49 510.81" stroke="hsla(205.79999999999995, 100%, 34.4%, 0.78)" stroke-width="1.5"></path><path d="M1101.28 641.78L1101.28 641.78" stroke="hsla(205.79999999999995, 100%, 34.4%, 0.78)" stroke-width="1.5"></path><path d="M1101.28 641.78L1240.49 510.81" stroke="hsla(205.79999999999995, 100%, 34.4%, 0.78)" stroke-width="1.5"></path><path d="M1101.28 641.78L1123.97 384.29" stroke="hsla(205.79999999999995, 100%, 34.4%, 0.78)" stroke-width="1.5"></path><path d="M1247 -91.32L1247 -91.32" stroke="hsla(205.79999999999995, 100%, 34.4%, 0.78)" stroke-width="1.5"></path><path d="M1247 -91.32L1271.24 59.46" stroke="hsla(205.79999999999995, 100%, 34.4%, 0.78)" stroke-width="1.5"></path><path d="M1247 -91.32L1412.9 -97.75" stroke="hsla(205.79999999999995, 100%, 34.4%, 0.78)" stroke-width="1.5"></path><path d="M1271.24 59.46L1271.24 59.46" stroke="hsla(205.79999999999995, 100%, 34.4%, 0.78)" stroke-width="1.5"></path><path d="M1271.24 59.46L1388.74 81.14" stroke="hsla(205.79999999999995, 100%, 34.4%, 0.78)" stroke-width="1.5"></path><path d="M1271.24 59.46L1287.56 198.07" stroke="hsla(205.79999999999995, 100%, 34.4%, 0.78)" stroke-width="1.5"></path><path d="M1271.24 59.46L1412.9 -97.75" stroke="hsla(205.79999999999995, 100%, 34.4%, 0.78)" stroke-width="1.5"></path><path d="M1287.56 198.07L1287.56 198.07" stroke="hsla(205.79999999999995, 100%, 34.4%, 0.78)" stroke-width="1.5"></path><path d="M1287.56 198.07L1407.22 259.1" stroke="hsla(205.79999999999995, 100%, 34.4%, 0.78)" stroke-width="1.5"></path><path d="M1243.39 349.91L1243.39 349.91" stroke="hsla(205.79999999999995, 100%, 34.4%, 0.78)" stroke-width="1.5"></path><path d="M1243.39 349.91L1287.56 198.07" stroke="hsla(205.79999999999995, 100%, 34.4%, 0.78)" stroke-width="1.5"></path><path d="M1243.39 349.91L1396.8 395.79" stroke="hsla(205.79999999999995, 100%, 34.4%, 0.78)" stroke-width="1.5"></path><path d="M1243.39 349.91L1240.49 510.81" stroke="hsla(205.79999999999995, 100%, 34.4%, 0.78)" stroke-width="1.5"></path><path d="M1243.39 349.91L1407.22 259.1" stroke="hsla(205.79999999999995, 100%, 34.4%, 0.78)" stroke-width="1.5"></path><path d="M1240.49 510.81L1240.49 510.81" stroke="hsla(205.79999999999995, 100%, 34.4%, 0.78)" stroke-width="1.5"></path><path d="M1412.9 -97.75L1412.9 -97.75" stroke="hsla(205.79999999999995, 100%, 34.4%, 0.78)" stroke-width="1.5"></path><path d="M1412.9 -97.75L1388.74 81.14" stroke="hsla(205.79999999999995, 100%, 34.4%, 0.78)" stroke-width="1.5"></path><path d="M1412.9 -97.75L1611.18 -72.21" stroke="hsla(205.79999999999995, 100%, 34.4%, 0.78)" stroke-width="1.5"></path><path d="M1412.9 -97.75L1580.23 99.07" stroke="hsla(205.79999999999995, 100%, 34.4%, 0.78)" stroke-width="1.5"></path><path d="M1388.74 81.14L1388.74 81.14" stroke="hsla(205.79999999999995, 100%, 34.4%, 0.78)" stroke-width="1.5"></path><path d="M1388.74 81.14L1287.56 198.07" stroke="hsla(205.79999999999995, 100%, 34.4%, 0.78)" stroke-width="1.5"></path><path d="M1388.74 81.14L1407.22 259.1" stroke="hsla(205.79999999999995, 100%, 34.4%, 0.78)" stroke-width="1.5"></path><path d="M1407.22 259.1L1407.22 259.1" stroke="hsla(205.79999999999995, 100%, 34.4%, 0.78)" stroke-width="1.5"></path><path d="M1407.22 259.1L1396.8 395.79" stroke="hsla(205.79999999999995, 100%, 34.4%, 0.78)" stroke-width="1.5"></path><path d="M1407.22 259.1L1557.07 248.35" stroke="hsla(205.79999999999995, 100%, 34.4%, 0.78)" stroke-width="1.5"></path><path d="M1396.8 395.79L1396.8 395.79" stroke="hsla(205.79999999999995, 100%, 34.4%, 0.78)" stroke-width="1.5"></path><path d="M1396.8 395.79L1554.12 380.11" stroke="hsla(205.79999999999995, 100%, 34.4%, 0.78)" stroke-width="1.5"></path><path d="M1396.8 395.79L1427.82 561.37" stroke="hsla(205.79999999999995, 100%, 34.4%, 0.78)" stroke-width="1.5"></path><path d="M1396.8 395.79L1240.49 510.81" stroke="hsla(205.79999999999995, 100%, 34.4%, 0.78)" stroke-width="1.5"></path><path d="M1396.8 395.79L1557.07 248.35" stroke="hsla(205.79999999999995, 100%, 34.4%, 0.78)" stroke-width="1.5"></path><path d="M1427.82 561.37L1427.82 561.37" stroke="hsla(205.79999999999995, 100%, 34.4%, 0.78)" stroke-width="1.5"></path><path d="M1427.82 561.37L1396.68 671.64" stroke="hsla(205.79999999999995, 100%, 34.4%, 0.78)" stroke-width="1.5"></path><path d="M1396.68 671.64L1396.68 671.64" stroke="hsla(205.79999999999995, 100%, 34.4%, 0.78)" stroke-width="1.5"></path><path d="M1396.68 671.64L1611.47 643.65" stroke="hsla(205.79999999999995, 100%, 34.4%, 0.78)" stroke-width="1.5"></path><path d="M1396.68 671.64L1240.49 510.81" stroke="hsla(205.79999999999995, 100%, 34.4%, 0.78)" stroke-width="1.5"></path><path d="M1611.18 -72.21L1611.18 -72.21" stroke="hsla(205.79999999999995, 100%, 34.4%, 0.78)" stroke-width="1.5"></path><path d="M1557.07 248.35L1557.07 248.35" stroke="hsla(205.79999999999995, 100%, 34.4%, 0.78)" stroke-width="1.5"></path><path d="M1557.07 248.35L1554.12 380.11" stroke="hsla(205.79999999999995, 100%, 34.4%, 0.78)" stroke-width="1.5"></path><path d="M1557.07 248.35L1388.74 81.14" stroke="hsla(205.79999999999995, 100%, 34.4%, 0.78)" stroke-width="1.5"></path><path d="M1557.07 248.35L1287.56 198.07" stroke="hsla(205.79999999999995, 100%, 34.4%, 0.78)" stroke-width="1.5"></path><path d="M1554.12 380.11L1554.12 380.11" stroke="hsla(205.79999999999995, 100%, 34.4%, 0.78)" stroke-width="1.5"></path><path d="M1554.12 380.11L1407.22 259.1" stroke="hsla(205.79999999999995, 100%, 34.4%, 0.78)" stroke-width="1.5"></path><path d="M1611.47 643.65L1611.47 643.65" stroke="hsla(205.79999999999995, 100%, 34.4%, 0.78)" stroke-width="1.5"></path><path d="M1611.47 643.65L1427.82 561.37" stroke="hsla(205.79999999999995, 100%, 34.4%, 0.78)" stroke-width="1.5"></path><circle r="25" cx="49.23" cy="708.83" fill="url(#SvgjsRadialGradient1049)"></circle><circle r="25" cx="560.96" cy="653.58" fill="url(#SvgjsRadialGradient1049)"></circle><circle r="25" cx="664.87" cy="388.13" fill="url(#SvgjsRadialGradient1049)"></circle><circle r="25" cx="968.83" cy="673.52" fill="url(#SvgjsRadialGradient1049)"></circle><circle r="25" cx="1128.62" cy="556.86" fill="url(#SvgjsRadialGradient1049)"></circle><circle r="25" cx="1264.3" cy="661.61" fill="url(#SvgjsRadialGradient1049)"></circle><circle r="25" cx="1580.23" cy="99.07" fill="url(#SvgjsRadialGradient1049)"></circle><circle r="25" cx="1575.06" cy="526.65" fill="url(#SvgjsRadialGradient1049)"></circle><circle r="5" cx="-90.46" cy="526.56" fill="rgba(156, 186, 208, 0.89)"></circle><circle r="5" cx="-56.07" cy="647.92" fill="rgba(156, 186, 208, 0.89)"></circle><circle r="5" cx="191.08" cy="540.31" fill="rgba(156, 186, 208, 0.89)"></circle><circle r="5" cx="227.78" cy="659.57" fill="rgba(156, 186, 208, 0.89)"></circle><circle r="5" cx="356.16" cy="677.44" fill="rgba(156, 186, 208, 0.89)"></circle><circle r="5" cx="510.3" cy="409.7" fill="rgba(156, 186, 208, 0.89)"></circle><circle r="5" cx="528.63" cy="538.55" fill="rgba(156, 186, 208, 0.89)"></circle><circle r="5" cx="668.26" cy="506.39" fill="rgba(156, 186, 208, 0.89)"></circle><circle r="5" cx="647.13" cy="642.91" fill="rgba(156, 186, 208, 0.89)"></circle><circle r="5" cx="853.64" cy="339.95" fill="rgba(156, 186, 208, 0.89)"></circle><circle r="5" cx="827.9" cy="520.63" fill="rgba(156, 186, 208, 0.89)"></circle><circle r="5" cx="979.34" cy="339.29" fill="rgba(156, 186, 208, 0.89)"></circle><circle r="5" cx="941.23" cy="558.21" fill="rgba(156, 186, 208, 0.89)"></circle><circle r="5" cx="1143.04" cy="93.38" fill="rgba(156, 186, 208, 0.89)"></circle><circle r="5" cx="1120.72" cy="228.96" fill="rgba(156, 186, 208, 0.89)"></circle><circle r="5" cx="1123.97" cy="384.29" fill="rgba(156, 186, 208, 0.89)"></circle><circle r="5" cx="1101.28" cy="641.78" fill="rgba(156, 186, 208, 0.89)"></circle><circle r="5" cx="1247" cy="-91.32" fill="rgba(156, 186, 208, 0.89)"></circle><circle r="5" cx="1271.24" cy="59.46" fill="rgba(156, 186, 208, 0.89)"></circle><circle r="5" cx="1287.56" cy="198.07" fill="rgba(156, 186, 208, 0.89)"></circle><circle r="5" cx="1243.39" cy="349.91" fill="rgba(156, 186, 208, 0.89)"></circle><circle r="5" cx="1240.49" cy="510.81" fill="rgba(156, 186, 208, 0.89)"></circle><circle r="5" cx="1412.9" cy="-97.75" fill="rgba(156, 186, 208, 0.89)"></circle><circle r="5" cx="1388.74" cy="81.14" fill="rgba(156, 186, 208, 0.89)"></circle><circle r="5" cx="1407.22" cy="259.1" fill="rgba(156, 186, 208, 0.89)"></circle><circle r="5" cx="1396.8" cy="395.79" fill="rgba(156, 186, 208, 0.89)"></circle><circle r="5" cx="1427.82" cy="561.37" fill="rgba(156, 186, 208, 0.89)"></circle><circle r="5" cx="1396.68" cy="671.64" fill="rgba(156, 186, 208, 0.89)"></circle><circle r="5" cx="1611.18" cy="-72.21" fill="rgba(156, 186, 208, 0.89)"></circle><circle r="5" cx="1557.07" cy="248.35" fill="rgba(156, 186, 208, 0.89)"></circle><circle r="5" cx="1554.12" cy="380.11" fill="rgba(156, 186, 208, 0.89)"></circle><circle r="5" cx="1611.47" cy="643.65" fill="rgba(156, 186, 208, 0.89)"></circle></g><defs><mask id="SvgjsMask1048"><rect width="1440" height="560" fill="#ffffff"></rect></mask><radialGradient id="SvgjsRadialGradient1049"><stop stop-color="#ffffff" offset="0.1"></stop><stop stop-color="rgba(0, 77, 135, 0.78)" offset="0.2"></stop><stop stop-color="rgba(0, 77, 135, 0)" offset="1"></stop></radialGradient></defs></svg>